<?xml version="1.0" encoding="utf-8"?>
<!-- Generator: Adobe Illustrator 16.0.0, SVG Export Plug-In . SVG Version: 6.00 Build 0)  -->
<!DOCTYPE svg PUBLIC "-//W3C//DTD SVG 1.1//EN" "http://www.w3.org/Graphics/SVG/1.1/DTD/svg11.dtd">
<svg version="1.1" xmlns="http://www.w3.org/2000/svg" xmlns:xlink="http://www.w3.org/1999/xlink" x="0px" y="0px" width="1098px"
	 height="300px" viewBox="0 0 1098 300" enable-background="new 0 0 1098 300" xml:space="preserve">
<g id="Layer_1" display="none">
	
		<image display="inline" overflow="visible" width="1098" height="300" xlink:href="../../Downloads/opz.jpg"  transform="matrix(0.9942 0 0 0.9942 1 1.7271)">
	</image>
</g>
<g id="Layer_2">
	<path id="b-1" fill="#414042" d="M32.917,132.338v159.546h62.311V132.338H32.917z M63.784,276.884
		c-8.48,0-15.355-6.875-15.355-15.356s6.875-15.356,15.355-15.356c8.481,0,15.356,6.875,15.356,15.356
		S72.265,276.884,63.784,276.884z M63.784,230.575c-8.481,0-15.356-6.875-15.356-15.356s6.875-15.356,15.356-15.356
		s15.356,6.875,15.356,15.356S72.265,230.575,63.784,230.575z M63.784,184.575c-8.48,0-15.355-6.875-15.355-15.356
		s6.875-15.356,15.355-15.356c8.481,0,15.356,6.875,15.356,15.356S72.265,184.575,63.784,184.575z"/>
	
		<circle display="none" opacity="0.8" fill="#414042" stroke="#000000" stroke-miterlimit="10" cx="796.701" cy="-72.959" r="15.356"/>
	<path id="b-2" fill="#414042" d="M96.855,132.338v159.546h60.667V132.338H96.855z M126.67,276.884
		c-8.48,0-15.355-6.875-15.355-15.355s6.875-15.355,15.355-15.355c8.482,0,15.357,6.875,15.357,15.355
		S135.152,276.884,126.67,276.884z M126.671,230.575c-8.481,0-15.356-6.875-15.356-15.356s6.875-15.356,15.356-15.356
		s15.356,6.875,15.356,15.356S135.152,230.575,126.671,230.575z M126.67,184.575c-8.48,0-15.355-6.875-15.355-15.356
		s6.875-15.356,15.355-15.356c8.482,0,15.357,6.875,15.357,15.356S135.152,184.575,126.67,184.575z"/>
	<path id="b-3" fill="#414042" d="M158.855,132.338v159.546h60.667V132.338H158.855z M188.67,276.884
		c-8.48,0-15.355-6.875-15.355-15.355s6.875-15.355,15.355-15.355c8.482,0,15.357,6.875,15.357,15.355
		S197.153,276.884,188.67,276.884z M188.671,230.575c-8.481,0-15.356-6.875-15.356-15.356s6.875-15.356,15.356-15.356
		s15.356,6.875,15.356,15.356S197.153,230.575,188.671,230.575z M188.67,184.575c-8.48,0-15.355-6.875-15.355-15.356
		s6.875-15.356,15.355-15.356c8.482,0,15.357,6.875,15.357,15.356S197.153,184.575,188.67,184.575z"/>
	<path id="b-4" fill="#414042" d="M266.166,216.22c0-8.481,6.875-15.356,15.356-15.356v-68.525h-60.667v159.546h60.667v-60.309
		C273.041,231.576,266.166,224.701,266.166,216.22z M250.67,276.884c-8.48,0-15.355-6.875-15.355-15.355s6.875-15.355,15.355-15.355
		c8.482,0,15.357,6.875,15.357,15.355S259.153,276.884,250.67,276.884z M250.67,184.575c-8.48,0-15.355-6.875-15.355-15.356
		s6.875-15.356,15.355-15.356c8.482,0,15.357,6.875,15.357,15.356S259.153,184.575,250.67,184.575z"/>
	<path id="b-5" fill="#414042" d="M343.688,200.864v-68.525h-60.667v68.425c7.856,0.677,14.023,7.258,14.023,15.289
		s-6.167,14.612-14.023,15.289v60.544h60.667v-60.309c-8.481,0-15.356-6.875-15.356-15.355
		C328.332,207.739,335.207,200.864,343.688,200.864z M312.836,276.884c-8.48,0-15.355-6.875-15.355-15.355
		s6.875-15.355,15.355-15.355c8.482,0,15.357,6.875,15.357,15.355S321.319,276.884,312.836,276.884z M312.836,184.575
		c-8.48,0-15.355-6.875-15.355-15.356s6.875-15.356,15.355-15.356c8.482,0,15.357,6.875,15.357,15.356
		S321.319,184.575,312.836,184.575z"/>
	<path id="b-6" fill="#414042" d="M406.021,200.864v-68.525h-60.667v68.425c7.856,0.677,14.023,7.258,14.023,15.289
		s-6.167,14.612-14.023,15.289v60.544h60.667v-60.309c-8.481,0-15.356-6.875-15.356-15.355
		C390.665,207.739,397.54,200.864,406.021,200.864z M375.17,276.884c-8.48,0-15.355-6.875-15.355-15.355s6.875-15.355,15.355-15.355
		c8.482,0,15.357,6.875,15.357,15.355S383.652,276.884,375.17,276.884z M375.17,184.575c-8.48,0-15.355-6.875-15.355-15.356
		s6.875-15.356,15.355-15.356c8.482,0,15.357,6.875,15.357,15.356S383.652,184.575,375.17,184.575z"/>
	<path id="b-7" fill="#414042" d="M468.688,231.576v-99.237h-60.667v68.425c7.856,0.677,14.023,7.258,14.023,15.289
		s-6.167,14.612-14.023,15.289v60.544h60.667V231.576 M437.836,276.884c-8.48,0-15.355-6.875-15.355-15.355
		s6.875-15.355,15.355-15.355c8.482,0,15.357,6.875,15.357,15.355S446.318,276.884,437.836,276.884z M437.836,184.575
		c-8.48,0-15.355-6.875-15.355-15.356s6.875-15.356,15.355-15.356c8.482,0,15.357,6.875,15.357,15.356
		S446.318,184.575,437.836,184.575z"/>
	<path id="b-8" fill="#414042" d="M470.354,231.34v60.544h60.667v-60.309c-8.481,0-15.356-6.875-15.356-15.355
		c0-8.481,6.875-15.356,15.356-15.356v-68.525h-60.667V231.34 M500.169,276.884c-8.48,0-15.355-6.875-15.355-15.355
		s6.875-15.355,15.355-15.355c8.482,0,15.357,6.875,15.357,15.355S508.652,276.884,500.169,276.884z M500.169,184.575
		c-8.48,0-15.355-6.875-15.355-15.356s6.875-15.356,15.355-15.356c8.482,0,15.357,6.875,15.357,15.356
		S508.652,184.575,500.169,184.575z"/>
	<path id="b-9" fill="#414042" d="M593.355,200.864v-68.525h-60.666v68.425c7.855,0.677,14.023,7.258,14.023,15.289
		s-6.168,14.612-14.023,15.289v60.544h60.666v-60.309c-8.481,0-15.356-6.875-15.356-15.355
		C577.999,207.739,584.874,200.864,593.355,200.864z M562.504,276.884c-8.48,0-15.355-6.875-15.355-15.355
		s6.875-15.355,15.355-15.355c8.482,0,15.357,6.875,15.357,15.355S570.986,276.884,562.504,276.884z M562.504,184.575
		c-8.48,0-15.355-6.875-15.355-15.356s6.875-15.356,15.355-15.356c8.482,0,15.357,6.875,15.357,15.356
		S570.986,184.575,562.504,184.575z"/>
	<path id="b-10" fill="#414042" d="M655.566,231.576v-99.237h-60.667v68.425c7.856,0.677,14.023,7.258,14.023,15.289
		s-6.167,14.612-14.023,15.289v60.544h60.667V231.576 M624.715,276.884c-8.48,0-15.355-6.875-15.355-15.355
		s6.875-15.355,15.355-15.355c8.482,0,15.357,6.875,15.357,15.355S633.197,276.884,624.715,276.884z M624.715,184.575
		c-8.48,0-15.355-6.875-15.355-15.356s6.875-15.356,15.355-15.356c8.482,0,15.357,6.875,15.357,15.356
		S633.197,184.575,624.715,184.575z"/>
	<path id="b-11" fill="#414042" d="M657.007,231.34v60.544h60.667v-60.309c-8.482,0-15.357-6.875-15.357-15.355
		c0-8.481,6.875-15.356,15.357-15.356v-68.525h-60.667V231.34 M686.822,276.884c-8.48,0-15.355-6.875-15.355-15.355
		s6.875-15.355,15.355-15.355c8.482,0,15.357,6.875,15.357,15.355S695.305,276.884,686.822,276.884z M686.822,184.575
		c-8.48,0-15.355-6.875-15.355-15.356s6.875-15.356,15.355-15.356c8.482,0,15.357,6.875,15.357,15.356
		S695.305,184.575,686.822,184.575z"/>
	<path id="b-9_1_" fill="#414042" d="M779.84,200.864v-68.525h-60.666v68.425c7.855,0.677,14.023,7.258,14.023,15.289
		s-6.168,14.612-14.023,15.289v60.544h60.666v-60.309c-8.481,0-15.356-6.875-15.356-15.355
		C764.483,207.739,771.358,200.864,779.84,200.864z M748.988,276.884c-8.48,0-15.355-6.875-15.355-15.355
		s6.875-15.355,15.355-15.355c8.482,0,15.357,6.875,15.357,15.355S757.471,276.884,748.988,276.884z M748.988,184.575
		c-8.48,0-15.355-6.875-15.355-15.356s6.875-15.356,15.355-15.356c8.482,0,15.357,6.875,15.357,15.356
		S757.471,184.575,748.988,184.575z"/>
	<path id="b-9_2_" fill="#414042" d="M842.011,200.864v-68.525h-60.666v68.425c7.855,0.677,14.023,7.258,14.023,15.289
		s-6.168,14.612-14.023,15.289v60.544h60.666v-60.309c-8.481,0-15.356-6.875-15.356-15.355
		C826.654,207.739,833.529,200.864,842.011,200.864z M811.159,276.884c-8.48,0-15.355-6.875-15.355-15.355
		s6.875-15.355,15.355-15.355c8.482,0,15.357,6.875,15.357,15.355S819.642,276.884,811.159,276.884z M811.159,184.575
		c-8.48,0-15.355-6.875-15.355-15.356s6.875-15.356,15.355-15.356c8.482,0,15.357,6.875,15.357,15.356
		S819.642,184.575,811.159,184.575z"/>
	<path id="b-10_1_" fill="#414042" d="M904.178,231.576v-99.237h-60.667v68.425c7.856,0.677,14.023,7.258,14.023,15.289
		s-6.167,14.612-14.023,15.289v60.544h60.667V231.576 M873.326,276.884c-8.48,0-15.355-6.875-15.355-15.355
		s6.875-15.355,15.355-15.355c8.482,0,15.357,6.875,15.357,15.355S881.809,276.884,873.326,276.884z M873.326,184.575
		c-8.48,0-15.355-6.875-15.355-15.356s6.875-15.356,15.355-15.356c8.482,0,15.357,6.875,15.357,15.356
		S881.809,184.575,873.326,184.575z"/>
	<path id="b-11_1_" fill="#414042" d="M905.68,231.34v60.544h60.667v-60.309c-8.482,0-15.357-6.875-15.357-15.355
		c0-8.481,6.875-15.356,15.357-15.356v-68.525H905.68V231.34 M935.495,276.884c-8.48,0-15.355-6.875-15.355-15.355
		s6.875-15.355,15.355-15.355c8.482,0,15.357,6.875,15.357,15.355S943.978,276.884,935.495,276.884z M935.495,184.575
		c-8.48,0-15.355-6.875-15.355-15.356s6.875-15.356,15.355-15.356c8.482,0,15.357,6.875,15.357,15.356
		S943.978,184.575,935.495,184.575z"/>
	<path id="b-9_3_" fill="#414042" d="M1028.514,200.864v-68.525h-60.666v68.425c7.855,0.677,14.023,7.258,14.023,15.289
		s-6.168,14.612-14.023,15.289v60.544h60.666v-60.309c-8.481,0-15.356-6.875-15.356-15.355
		C1013.157,207.739,1020.032,200.864,1028.514,200.864z M997.662,276.884c-8.48,0-15.355-6.875-15.355-15.355
		s6.875-15.355,15.355-15.355c8.482,0,15.357,6.875,15.357,15.355S1006.145,276.884,997.662,276.884z M997.662,184.575
		c-8.48,0-15.355-6.875-15.355-15.356s6.875-15.356,15.355-15.356c8.482,0,15.357,6.875,15.357,15.356
		S1006.145,184.575,997.662,184.575z"/>
	<path id="b-7_1_" fill="#414042" d="M1090.615,231.576v-99.237h-60.666v68.425c7.855,0.677,14.023,7.258,14.023,15.289
		s-6.168,14.612-14.023,15.289v60.544h60.666V231.576 M1059.764,276.884c-8.48,0-15.355-6.875-15.355-15.355
		s6.875-15.355,15.355-15.355c8.482,0,15.357,6.875,15.357,15.355S1068.246,276.884,1059.764,276.884z M1059.764,184.575
		c-8.48,0-15.355-6.875-15.355-15.356s6.875-15.356,15.355-15.356c8.482,0,15.357,6.875,15.357,15.356
		S1068.246,184.575,1059.764,184.575z"/>
	<path fill="#414042" d="M32.917,7.349v122.672h560.438V7.349H32.917z M142.688,75.688c-1.426,0-2.583-1.157-2.583-2.583
		c0-1.426,1.157-2.583,2.583-2.583c1.427,0,2.583,1.157,2.583,2.583C145.271,74.531,144.115,75.688,142.688,75.688z M142.938,65.854
		c-1.426,0-2.583-1.157-2.583-2.583c0-1.426,1.157-2.583,2.583-2.583c1.427,0,2.583,1.157,2.583,2.583
		C145.522,64.697,144.365,65.854,142.938,65.854z M152.855,75.688c-1.426,0-2.583-1.157-2.583-2.583
		c0-1.426,1.157-2.583,2.583-2.583c1.427,0,2.583,1.157,2.583,2.583C155.438,74.531,154.282,75.688,152.855,75.688z M153.105,65.854
		c-1.426,0-2.583-1.157-2.583-2.583c0-1.426,1.157-2.583,2.583-2.583c1.427,0,2.583,1.157,2.583,2.583
		C155.689,64.697,154.532,65.854,153.105,65.854z M162.355,75.688c-1.426,0-2.583-1.157-2.583-2.583
		c0-1.426,1.157-2.583,2.583-2.583c1.427,0,2.583,1.157,2.583,2.583C164.938,74.531,163.782,75.688,162.355,75.688z M162.605,65.854
		c-1.426,0-2.583-1.157-2.583-2.583c0-1.426,1.157-2.583,2.583-2.583c1.427,0,2.583,1.157,2.583,2.583
		C165.189,64.697,164.032,65.854,162.605,65.854z M172.355,75.688c-1.426,0-2.583-1.157-2.583-2.583
		c0-1.426,1.157-2.583,2.583-2.583c1.427,0,2.583,1.157,2.583,2.583C174.938,74.531,173.782,75.688,172.355,75.688z M172.605,65.854
		c-1.426,0-2.583-1.157-2.583-2.583c0-1.426,1.157-2.583,2.583-2.583c1.427,0,2.583,1.157,2.583,2.583
		C175.189,64.697,174.032,65.854,172.605,65.854z"/>
	<rect x="110.355" y="4.104" fill="#414042" width="34.25" height="2.583"/>
	<rect x="173.272" y="4.104" fill="#414042" width="34.25" height="2.583"/>
	<rect x="235.105" y="4.104" fill="#414042" width="34.25" height="2.583"/>
	<rect x="297.105" y="4.521" fill="#414042" width="34.25" height="2.167"/>
	<rect x="121.772" y="293.02" fill="#414042" width="74.25" height="2.331"/>
	<rect x="1" y="37.687" fill="#D8C034" width="30.522" height="21.333"/>
	<rect x="1" y="28.846" fill="#D7992A" width="30.522" height="7.833"/>
	<circle display="none" opacity="0.6" fill="#414042" cx="658.904" cy="68.685" r="52.5"/>
	<g>
		<path fill="#414042" d="M636.221,66.013c1.307-9.529,9.458-16.878,19.347-16.878c9.887,0,18.04,7.349,19.345,16.878h31.585
			c-1.389-26.925-23.659-48.329-50.93-48.329s-49.541,21.404-50.931,48.329H636.221z"/>
		<path fill="#414042" d="M674.912,71.356c-1.305,9.53-9.458,16.878-19.345,16.878c-9.889,0-18.04-7.348-19.347-16.878h-31.584
			c1.39,26.925,23.66,48.329,50.931,48.329s49.541-21.404,50.93-48.329H674.912z"/>
	</g>
	<path fill="#00A651" d="M673.777,67.012c-0.847-9.318-8.673-16.622-18.211-16.622s-17.364,7.304-18.209,16.622h-32.79v3.345h32.79
		c0.845,9.319,8.671,16.622,18.209,16.622c9.54,0,17.364-7.303,18.211-16.622h32.789v-3.345H673.777z M665.389,72.408h-6.098v6.098
		h-7.447v-6.098h-6.098V64.96h6.098v-6.097h7.447v6.097h6.098V72.408z"/>
	<path fill="#414042" d="M594.9,7.349v122.672h122.735V7.349H594.9z M655.567,121.185c-28.995,0-52.501-23.505-52.501-52.5
		s23.506-52.5,52.501-52.5s52.5,23.505,52.5,52.5S684.562,121.185,655.567,121.185z"/>
	<circle display="none" fill="#808285" cx="651.95" cy="66.701" r="50.833"/>
	<path fill="#414042" d="M719.174,7.349v122.672h122.734V7.349H719.174z M780.54,121.185c-28.995,0-52.499-23.505-52.499-52.5
		s23.504-52.5,52.499-52.5s52.5,23.505,52.5,52.5S809.535,121.185,780.54,121.185z"/>
	<circle display="none" fill="#808285" cx="651.95" cy="66.701" r="50.833"/>
	<g>
		<path fill="#414042" d="M761.194,66.013c1.307-9.529,9.458-16.878,19.347-16.878c9.887,0,18.04,7.349,19.345,16.878h31.585
			c-1.389-26.925-23.659-48.329-50.93-48.329S731,39.088,729.61,66.013H761.194z"/>
		<path fill="#414042" d="M799.886,71.356c-1.305,9.53-9.458,16.878-19.345,16.878c-9.889,0-18.04-7.348-19.347-16.878H729.61
			c1.39,26.925,23.66,48.329,50.931,48.329s49.541-21.404,50.93-48.329H799.886z"/>
	</g>
	<path fill="#226C9E" d="M798.751,67.012c-0.847-9.318-8.673-16.622-18.211-16.622s-17.364,7.304-18.209,16.622h-32.79v3.345h32.79
		c0.845,9.319,8.671,16.622,18.209,16.622c9.54,0,17.364-7.303,18.211-16.622h32.789v-3.345H798.751z M790.362,72.408h-6.098v6.098
		h-7.447v-6.098h-6.098V64.96h6.098v-6.097h7.447v6.097h6.098V72.408z"/>
	<path fill="#414042" d="M843.511,7.349v122.672h122.734V7.349H843.511z M905.679,121.185c-28.995,0-52.499-23.505-52.499-52.5
		s23.504-52.5,52.499-52.5s52.5,23.505,52.5,52.5S934.674,121.185,905.679,121.185z"/>
	<g>
		<path fill="#414042" d="M886.333,66.013c1.307-9.529,9.458-16.878,19.347-16.878c9.887,0,18.04,7.349,19.345,16.878h31.585
			c-1.389-26.925-23.659-48.329-50.93-48.329s-49.541,21.404-50.931,48.329H886.333z"/>
		<path fill="#414042" d="M925.024,71.356c-1.305,9.53-9.458,16.878-19.345,16.878c-9.889,0-18.04-7.348-19.347-16.878h-31.584
			c1.39,26.925,23.66,48.329,50.931,48.329s49.541-21.404,50.93-48.329H925.024z"/>
	</g>
	<path fill="#C5922C" d="M923.89,67.012c-0.847-9.318-8.673-16.622-18.211-16.622s-17.364,7.304-18.209,16.622h-32.79v3.345h32.79
		c0.845,9.319,8.671,16.622,18.209,16.622c9.54,0,17.364-7.303,18.211-16.622h32.789v-3.345H923.89z M915.501,72.408h-6.098v6.098
		h-7.447v-6.098h-6.098V64.96h6.098v-6.097h7.447v6.097h6.098V72.408z"/>
	<path fill="#414042" d="M967.848,7.349v122.672h122.734V7.349H967.848z M1029.949,121.185c-28.995,0-52.499-23.505-52.499-52.5
		s23.504-52.5,52.499-52.5s52.5,23.505,52.5,52.5S1058.944,121.185,1029.949,121.185z"/>
	<g>
		<path fill="#414042" d="M1010.604,66.013c1.307-9.529,9.458-16.878,19.347-16.878c9.887,0,18.04,7.349,19.345,16.878h31.585
			c-1.389-26.925-23.659-48.329-50.93-48.329s-49.541,21.404-50.931,48.329H1010.604z"/>
		<path fill="#414042" d="M1049.295,71.356c-1.305,9.53-9.458,16.878-19.345,16.878c-9.889,0-18.04-7.348-19.347-16.878H979.02
			c1.39,26.925,23.66,48.329,50.931,48.329s49.541-21.404,50.93-48.329H1049.295z"/>
	</g>
	<path fill="#A62F26" d="M1048.16,67.012c-0.847-9.318-8.673-16.622-18.211-16.622s-17.364,7.304-18.209,16.622h-32.79v3.345h32.79
		c0.845,9.319,8.671,16.622,18.209,16.622c9.54,0,17.364-7.303,18.211-16.622h32.789v-3.345H1048.16z M1039.771,72.408h-6.098v6.098
		h-7.447v-6.098h-6.098V64.96h6.098v-6.097h7.447v6.097h6.098V72.408z"/>
	<rect x="348.72" y="309.437" display="none" fill="#00A79D" width="89.635" height="88.251"/>
	<line display="none" fill="none" x1="393.537" y1="309.437" x2="348.72" y2="375.688"/>
	<path display="none" fill="#00A651" d="M250.48,247.521c-7.617,0-13.792,6.174-13.792,13.792s6.174,13.792,13.792,13.792
		s13.792-6.174,13.792-13.792S258.097,247.521,250.48,247.521z M258.54,261.966h-13.405l6.524,5.741v1.734l-9.239-8.129l9.239-8.13
		v1.734l-6.417,5.646h13.298V261.966z"/>
	<path display="none" fill="#00A651" d="M312.855,247.521c-7.617,0-13.792,6.174-13.792,13.792s6.174,13.792,13.792,13.792
		s13.792-6.174,13.792-13.792S320.472,247.521,312.855,247.521z M313.509,269.373l-8.129-9.24h1.734l5.646,6.417v-13.298h1.403
		v13.406l5.741-6.525h1.734L313.509,269.373z"/>
	<path display="none" fill="#00A651" d="M375.188,247.521c-7.617,0-13.792,6.174-13.792,13.792s6.174,13.792,13.792,13.792
		s13.792-6.174,13.792-13.792S382.805,247.521,375.188,247.521z M374.009,269.441v-1.734l6.417-5.646h-13.298v-1.403h13.405
		l-6.524-5.741v-1.734l9.239,8.13L374.009,269.441z"/>
	<polygon id="Arrow_4_" display="none" fill="#FFFFFF" points="482.635,436.073 533.098,391.674 482.635,347.27 482.635,356.743 
		518.27,388.1 445.053,388.1 445.053,395.766 517.684,395.766 482.635,426.6 	"/>
	<polygon display="none" fill="#FFFFFF" points="387.891,397.964 438.354,353.565 387.891,309.162 387.891,318.635 423.526,349.991 
		358.012,349.991 358.012,309.162 350.309,309.162 350.309,349.991 350.309,357.657 358.013,357.657 422.94,357.657 
		387.891,388.491 	"/>
	<circle display="none" fill="#FFFFFF" cx="354.161" cy="353.843" r="3.852"/>
	<circle display="none" fill="#FFFFFF" cx="354.161" cy="353.842" r="3.821"/>
	<path display="none" fill="#A62F26" d="M997.765,247.854c-7.617,0-13.792,6.174-13.792,13.791s6.175,13.792,13.792,13.792
		s13.791-6.175,13.791-13.792S1005.382,247.854,997.765,247.854z M997.468,269.708l-8.077-9.18h1.724l5.61,6.375v-11.812v-1.402
		h1.393h5.706v1.402h-5.706v11.919l5.706-6.483h1.724L997.468,269.708z"/>
	<path display="none" fill="#A62F26" d="M1059.864,247.854c-7.617,0-13.791,6.174-13.791,13.791s6.174,13.792,13.791,13.792
		s13.792-6.175,13.792-13.792S1067.481,247.854,1059.864,247.854z M1061.284,270.821l-8.079-9.18h1.724l5.706,6.483v-11.919h-5.706
		v-1.402h5.706h1.393v1.402v11.812l5.61-6.375h1.724L1061.284,270.821z"/>
</g>
<g id="Layer_3" display="none">
	<rect x="-125.645" y="-97.479" fill="#262262" width="1605" height="596"/>
	<path id="b-1_1_" display="inline" fill="#FFFFFF" d="M32.917,132.055v159.546h62.311V132.055H32.917z M63.784,276.601
		c-8.48,0-15.355-6.875-15.355-15.356s6.875-15.356,15.355-15.356c8.481,0,15.356,6.875,15.356,15.356
		S72.265,276.601,63.784,276.601z M63.784,230.292c-8.481,0-15.356-6.875-15.356-15.356s6.875-15.356,15.356-15.356
		s15.356,6.875,15.356,15.356S72.265,230.292,63.784,230.292z M63.784,184.292c-8.48,0-15.355-6.875-15.355-15.356
		s6.875-15.356,15.355-15.356c8.481,0,15.356,6.875,15.356,15.356S72.265,184.292,63.784,184.292z"/>
	<circle opacity="0.8" fill="#414042" stroke="#000000" stroke-miterlimit="10" cx="796.701" cy="-73.243" r="15.356"/>
	<path id="b-2_1_" display="inline" fill="#FFFFFF" d="M96.855,132.055v159.546h60.667V132.055H96.855z M126.67,276.6
		c-8.48,0-15.355-6.875-15.355-15.355s6.875-15.355,15.355-15.355c8.482,0,15.357,6.875,15.357,15.355S135.152,276.6,126.67,276.6z
		 M126.671,230.292c-8.481,0-15.356-6.875-15.356-15.356s6.875-15.356,15.356-15.356s15.356,6.875,15.356,15.356
		S135.152,230.292,126.671,230.292z M126.67,184.292c-8.48,0-15.355-6.875-15.355-15.356s6.875-15.356,15.355-15.356
		c8.482,0,15.357,6.875,15.357,15.356S135.152,184.292,126.67,184.292z"/>
	<path id="b-3_1_" display="inline" fill="#FFFFFF" d="M158.855,132.055v159.546h60.667V132.055H158.855z M188.67,276.6
		c-8.48,0-15.355-6.875-15.355-15.355s6.875-15.355,15.355-15.355c8.482,0,15.357,6.875,15.357,15.355S197.153,276.6,188.67,276.6z
		 M188.671,230.292c-8.481,0-15.356-6.875-15.356-15.356s6.875-15.356,15.356-15.356s15.356,6.875,15.356,15.356
		S197.153,230.292,188.671,230.292z M188.67,184.292c-8.48,0-15.355-6.875-15.355-15.356s6.875-15.356,15.355-15.356
		c8.482,0,15.357,6.875,15.357,15.356S197.153,184.292,188.67,184.292z"/>
	<path id="b-4_1_" display="inline" fill="#FFFFFF" d="M266.166,215.937c0-8.481,6.875-15.356,15.356-15.356v-68.525h-60.667
		v159.546h60.667v-60.309C273.041,231.292,266.166,224.417,266.166,215.937z M250.67,276.6c-8.48,0-15.355-6.875-15.355-15.355
		s6.875-15.355,15.355-15.355c8.482,0,15.357,6.875,15.357,15.355S259.153,276.6,250.67,276.6z M250.67,184.292
		c-8.48,0-15.355-6.875-15.355-15.356s6.875-15.356,15.355-15.356c8.482,0,15.357,6.875,15.357,15.356
		S259.153,184.292,250.67,184.292z"/>
	<path id="b-5_1_" display="inline" fill="#FFFFFF" d="M343.688,200.58v-68.525h-60.667v68.425
		c7.856,0.677,14.023,7.258,14.023,15.289s-6.167,14.612-14.023,15.289v60.544h60.667v-60.309c-8.481,0-15.356-6.875-15.356-15.355
		C328.332,207.455,335.207,200.58,343.688,200.58z M312.836,276.6c-8.48,0-15.355-6.875-15.355-15.355s6.875-15.355,15.355-15.355
		c8.482,0,15.357,6.875,15.357,15.355S321.319,276.6,312.836,276.6z M312.836,184.292c-8.48,0-15.355-6.875-15.355-15.356
		s6.875-15.356,15.355-15.356c8.482,0,15.357,6.875,15.357,15.356S321.319,184.292,312.836,184.292z"/>
	<path id="b-6_1_" display="inline" fill="#FFFFFF" d="M406.021,200.58v-68.525h-60.667v68.425
		c7.856,0.677,14.023,7.258,14.023,15.289s-6.167,14.612-14.023,15.289v60.544h60.667v-60.309c-8.481,0-15.356-6.875-15.356-15.355
		C390.665,207.455,397.54,200.58,406.021,200.58z M375.17,276.6c-8.48,0-15.355-6.875-15.355-15.355s6.875-15.355,15.355-15.355
		c8.482,0,15.357,6.875,15.357,15.355S383.652,276.6,375.17,276.6z M375.17,184.292c-8.48,0-15.355-6.875-15.355-15.356
		s6.875-15.356,15.355-15.356c8.482,0,15.357,6.875,15.357,15.356S383.652,184.292,375.17,184.292z"/>
	<path id="b-7_3_" display="inline" fill="#FFFFFF" d="M468.688,231.292v-99.237h-60.667v68.425
		c7.856,0.677,14.023,7.258,14.023,15.289s-6.167,14.612-14.023,15.289v60.544h60.667V231.292 M437.836,276.6
		c-8.48,0-15.355-6.875-15.355-15.355s6.875-15.355,15.355-15.355c8.482,0,15.357,6.875,15.357,15.355S446.318,276.6,437.836,276.6z
		 M437.836,184.292c-8.48,0-15.355-6.875-15.355-15.356s6.875-15.356,15.355-15.356c8.482,0,15.357,6.875,15.357,15.356
		S446.318,184.292,437.836,184.292z"/>
	<path id="b-8_1_" display="inline" fill="#FFFFFF" d="M470.354,231.057v60.544h60.667v-60.309c-8.482,0-15.357-6.875-15.357-15.355
		c0-8.481,6.875-15.356,15.357-15.356v-68.525h-60.667V231.057 M500.17,276.6c-8.48,0-15.355-6.875-15.355-15.355
		s6.875-15.355,15.355-15.355c8.482,0,15.357,6.875,15.357,15.355S508.652,276.6,500.17,276.6z M500.17,184.292
		c-8.48,0-15.355-6.875-15.355-15.356s6.875-15.356,15.355-15.356c8.482,0,15.357,6.875,15.357,15.356
		S508.652,184.292,500.17,184.292z"/>
	<path id="b-9_7_" display="inline" fill="#FFFFFF" d="M593.355,200.58v-68.525h-60.666v68.425
		c7.855,0.677,14.023,7.258,14.023,15.289s-6.168,14.612-14.023,15.289v60.544h60.666v-60.309c-8.481,0-15.356-6.875-15.356-15.355
		C577.999,207.455,584.874,200.58,593.355,200.58z M562.504,276.6c-8.48,0-15.355-6.875-15.355-15.355s6.875-15.355,15.355-15.355
		c8.482,0,15.357,6.875,15.357,15.355S570.986,276.6,562.504,276.6z M562.504,184.292c-8.48,0-15.355-6.875-15.355-15.356
		s6.875-15.356,15.355-15.356c8.482,0,15.357,6.875,15.357,15.356S570.986,184.292,562.504,184.292z"/>
	<path id="b-10_3_" display="inline" fill="#FFFFFF" d="M655.566,231.292v-99.237h-60.667v68.425
		c7.856,0.677,14.023,7.258,14.023,15.289s-6.167,14.612-14.023,15.289v60.544h60.667V231.292 M624.715,276.6
		c-8.48,0-15.355-6.875-15.355-15.355s6.875-15.355,15.355-15.355c8.482,0,15.357,6.875,15.357,15.355S633.197,276.6,624.715,276.6z
		 M624.715,184.292c-8.48,0-15.355-6.875-15.355-15.356s6.875-15.356,15.355-15.356c8.482,0,15.357,6.875,15.357,15.356
		S633.197,184.292,624.715,184.292z"/>
	<path id="b-11_3_" display="inline" fill="#FFFFFF" d="M657.007,231.057v60.544h60.667v-60.309
		c-8.482,0-15.357-6.875-15.357-15.355c0-8.481,6.875-15.356,15.357-15.356v-68.525h-60.667V231.057 M686.822,276.6
		c-8.48,0-15.355-6.875-15.355-15.355s6.875-15.355,15.355-15.355c8.482,0,15.357,6.875,15.357,15.355S695.305,276.6,686.822,276.6z
		 M686.822,184.292c-8.48,0-15.355-6.875-15.355-15.356s6.875-15.356,15.355-15.356c8.482,0,15.357,6.875,15.357,15.356
		S695.305,184.292,686.822,184.292z"/>
	<path id="b-9_6_" display="inline" fill="#FFFFFF" d="M779.84,200.58v-68.525h-60.666v68.425
		c7.855,0.677,14.023,7.258,14.023,15.289s-6.168,14.612-14.023,15.289v60.544h60.666v-60.309c-8.481,0-15.356-6.875-15.356-15.355
		C764.483,207.455,771.358,200.58,779.84,200.58z M748.988,276.6c-8.48,0-15.355-6.875-15.355-15.355s6.875-15.355,15.355-15.355
		c8.482,0,15.357,6.875,15.357,15.355S757.471,276.6,748.988,276.6z M748.988,184.292c-8.48,0-15.355-6.875-15.355-15.356
		s6.875-15.356,15.355-15.356c8.482,0,15.357,6.875,15.357,15.356S757.471,184.292,748.988,184.292z"/>
	<path id="b-9_5_" display="inline" fill="#FFFFFF" d="M842.011,200.58v-68.525h-60.666v68.425
		c7.855,0.677,14.023,7.258,14.023,15.289s-6.168,14.612-14.023,15.289v60.544h60.666v-60.309c-8.481,0-15.356-6.875-15.356-15.355
		C826.654,207.455,833.529,200.58,842.011,200.58z M811.159,276.6c-8.48,0-15.355-6.875-15.355-15.355s6.875-15.355,15.355-15.355
		c8.482,0,15.357,6.875,15.357,15.355S819.642,276.6,811.159,276.6z M811.159,184.292c-8.48,0-15.355-6.875-15.355-15.356
		s6.875-15.356,15.355-15.356c8.482,0,15.357,6.875,15.357,15.356S819.642,184.292,811.159,184.292z"/>
	<path id="b-10_2_" display="inline" fill="#FFFFFF" d="M904.178,231.292v-99.237h-60.667v68.425
		c7.856,0.677,14.023,7.258,14.023,15.289s-6.167,14.612-14.023,15.289v60.544h60.667V231.292 M873.326,276.6
		c-8.48,0-15.355-6.875-15.355-15.355s6.875-15.355,15.355-15.355c8.482,0,15.357,6.875,15.357,15.355S881.809,276.6,873.326,276.6z
		 M873.326,184.292c-8.48,0-15.355-6.875-15.355-15.356s6.875-15.356,15.355-15.356c8.482,0,15.357,6.875,15.357,15.356
		S881.809,184.292,873.326,184.292z"/>
	<path id="b-11_2_" display="inline" fill="#FFFFFF" d="M905.68,231.057v60.544h60.667v-60.309c-8.482,0-15.357-6.875-15.357-15.355
		c0-8.481,6.875-15.356,15.357-15.356v-68.525H905.68V231.057 M935.495,276.6c-8.48,0-15.355-6.875-15.355-15.355
		s6.875-15.355,15.355-15.355c8.482,0,15.357,6.875,15.357,15.355S943.978,276.6,935.495,276.6z M935.495,184.292
		c-8.48,0-15.355-6.875-15.355-15.356s6.875-15.356,15.355-15.356c8.482,0,15.357,6.875,15.357,15.356
		S943.978,184.292,935.495,184.292z"/>
	<path id="b-9_4_" display="inline" fill="#FFFFFF" d="M1028.514,200.58v-68.525h-60.666v68.425
		c7.855,0.677,14.023,7.258,14.023,15.289s-6.168,14.612-14.023,15.289v60.544h60.666v-60.309c-8.481,0-15.356-6.875-15.356-15.355
		C1013.157,207.455,1020.032,200.58,1028.514,200.58z M997.662,276.6c-8.48,0-15.355-6.875-15.355-15.355
		s6.875-15.355,15.355-15.355c8.482,0,15.357,6.875,15.357,15.355S1006.145,276.6,997.662,276.6z M997.662,184.292
		c-8.48,0-15.355-6.875-15.355-15.356s6.875-15.356,15.355-15.356c8.482,0,15.357,6.875,15.357,15.356
		S1006.145,184.292,997.662,184.292z"/>
	<path id="b-7_2_" display="inline" fill="#FFFFFF" d="M1090.615,231.292v-99.237h-60.666v68.425
		c7.855,0.677,14.023,7.258,14.023,15.289s-6.168,14.612-14.023,15.289v60.544h60.666V231.292 M1059.764,276.6
		c-8.48,0-15.355-6.875-15.355-15.355s6.875-15.355,15.355-15.355c8.482,0,15.357,6.875,15.357,15.355
		S1068.246,276.6,1059.764,276.6z M1059.764,184.292c-8.48,0-15.355-6.875-15.355-15.356s6.875-15.356,15.355-15.356
		c8.482,0,15.357,6.875,15.357,15.356S1068.246,184.292,1059.764,184.292z"/>
	<path display="inline" fill="#FFFFFF" d="M32.917,7.065v122.672h560.438V7.065H32.917z M142.688,75.404
		c-1.426,0-2.583-1.157-2.583-2.583c0-1.426,1.157-2.583,2.583-2.583c1.427,0,2.583,1.157,2.583,2.583
		C145.271,74.247,144.115,75.404,142.688,75.404z M142.938,65.57c-1.426,0-2.583-1.157-2.583-2.583c0-1.426,1.157-2.583,2.583-2.583
		c1.427,0,2.583,1.157,2.583,2.583C145.522,64.414,144.365,65.57,142.938,65.57z M152.855,75.404c-1.426,0-2.583-1.157-2.583-2.583
		c0-1.426,1.157-2.583,2.583-2.583c1.427,0,2.583,1.157,2.583,2.583C155.438,74.247,154.282,75.404,152.855,75.404z M153.105,65.57
		c-1.426,0-2.583-1.157-2.583-2.583c0-1.426,1.157-2.583,2.583-2.583c1.427,0,2.583,1.157,2.583,2.583
		C155.689,64.414,154.532,65.57,153.105,65.57z M162.355,75.404c-1.426,0-2.583-1.157-2.583-2.583c0-1.426,1.157-2.583,2.583-2.583
		c1.427,0,2.583,1.157,2.583,2.583C164.938,74.247,163.782,75.404,162.355,75.404z M162.605,65.57c-1.426,0-2.583-1.157-2.583-2.583
		c0-1.426,1.157-2.583,2.583-2.583c1.427,0,2.583,1.157,2.583,2.583C165.189,64.414,164.032,65.57,162.605,65.57z M172.355,75.404
		c-1.426,0-2.583-1.157-2.583-2.583c0-1.426,1.157-2.583,2.583-2.583c1.427,0,2.583,1.157,2.583,2.583
		C174.938,74.247,173.782,75.404,172.355,75.404z M172.605,65.57c-1.426,0-2.583-1.157-2.583-2.583c0-1.426,1.157-2.583,2.583-2.583
		c1.427,0,2.583,1.157,2.583,2.583C175.189,64.414,174.032,65.57,172.605,65.57z"/>
	<rect x="110.355" y="3.82" display="inline" fill="#FFFFFF" width="34.25" height="2.583"/>
	<rect x="173.272" y="3.82" display="inline" fill="#FFFFFF" width="34.25" height="2.583"/>
	<rect x="235.105" y="3.82" display="inline" fill="#FFFFFF" width="34.25" height="2.583"/>
	<rect x="297.105" y="4.237" display="inline" fill="#FFFFFF" width="34.25" height="2.167"/>
	<rect x="121.772" y="292.736" display="inline" fill="#FFFFFF" width="74.25" height="2.331"/>
	<rect x="1" y="37.403" display="inline" fill="#D8C034" width="30.522" height="21.333"/>
	<rect x="1" y="28.562" display="inline" fill="#D7992A" width="30.522" height="7.833"/>
	<circle opacity="0.6" fill="#414042" cx="658.904" cy="68.401" r="52.5"/>
	<g display="inline">
		<path fill="#FFFFFF" d="M636.221,65.729c1.307-9.529,9.458-16.878,19.347-16.878c9.887,0,18.04,7.349,19.345,16.878h31.585
			c-1.389-26.925-23.659-48.329-50.93-48.329s-49.541,21.404-50.931,48.329H636.221z"/>
		<path fill="#FFFFFF" d="M674.912,71.072c-1.305,9.53-9.458,16.878-19.345,16.878c-9.889,0-18.04-7.348-19.347-16.878h-31.584
			c1.39,26.925,23.66,48.329,50.931,48.329s49.541-21.404,50.93-48.329H674.912z"/>
	</g>
	<path display="inline" fill="#00A651" d="M673.777,66.729c-0.847-9.318-8.673-16.622-18.211-16.622s-17.364,7.304-18.209,16.622
		h-32.79v3.345h32.79c0.845,9.319,8.671,16.622,18.209,16.622c9.54,0,17.364-7.303,18.211-16.622h32.789v-3.345H673.777z
		 M665.389,72.125h-6.098v6.098h-7.447v-6.098h-6.098v-7.448h6.098V58.58h7.447v6.097h6.098V72.125z"/>
	<path display="inline" fill="#FFFFFF" d="M594.9,7.065v122.672h122.734V7.065H594.9z M655.567,120.901
		c-28.995,0-52.501-23.505-52.501-52.5s23.506-52.5,52.501-52.5s52.5,23.505,52.5,52.5S684.562,120.901,655.567,120.901z"/>
	<circle fill="#808285" cx="651.95" cy="66.417" r="50.833"/>
	<path display="inline" fill="#FFFFFF" d="M719.174,7.065v122.672h122.734V7.065H719.174z M780.54,120.901
		c-28.995,0-52.499-23.505-52.499-52.5s23.504-52.5,52.499-52.5s52.5,23.505,52.5,52.5S809.535,120.901,780.54,120.901z"/>
	<circle fill="#808285" cx="651.95" cy="66.417" r="50.833"/>
	<g display="inline">
		<path fill="#FFFFFF" d="M761.194,65.729c1.307-9.529,9.458-16.878,19.347-16.878c9.887,0,18.04,7.349,19.345,16.878h31.585
			c-1.389-26.925-23.659-48.329-50.93-48.329S731,38.805,729.61,65.729H761.194z"/>
		<path fill="#FFFFFF" d="M799.886,71.072c-1.305,9.53-9.458,16.878-19.345,16.878c-9.889,0-18.04-7.348-19.347-16.878H729.61
			c1.39,26.925,23.66,48.329,50.931,48.329s49.541-21.404,50.93-48.329H799.886z"/>
	</g>
	<path display="inline" fill="#226C9E" d="M798.751,66.729c-0.847-9.318-8.673-16.622-18.211-16.622s-17.364,7.304-18.209,16.622
		h-32.79v3.345h32.79c0.845,9.319,8.671,16.622,18.209,16.622c9.54,0,17.364-7.303,18.211-16.622h32.789v-3.345H798.751z
		 M790.362,72.125h-6.098v6.098h-7.447v-6.098h-6.098v-7.448h6.098V58.58h7.447v6.097h6.098V72.125z"/>
	<path display="inline" fill="#FFFFFF" d="M843.511,7.065v122.672h122.734V7.065H843.511z M905.679,120.901
		c-28.995,0-52.499-23.505-52.499-52.5s23.504-52.5,52.499-52.5s52.5,23.505,52.5,52.5S934.674,120.901,905.679,120.901z"/>
	<g display="inline">
		<path fill="#FFFFFF" d="M886.333,65.729c1.307-9.529,9.458-16.878,19.347-16.878c9.887,0,18.04,7.349,19.345,16.878h31.585
			c-1.389-26.925-23.659-48.329-50.93-48.329s-49.541,21.404-50.931,48.329H886.333z"/>
		<path fill="#FFFFFF" d="M925.024,71.072c-1.305,9.53-9.458,16.878-19.345,16.878c-9.889,0-18.04-7.348-19.347-16.878h-31.584
			c1.39,26.925,23.66,48.329,50.931,48.329s49.541-21.404,50.93-48.329H925.024z"/>
	</g>
	<path display="inline" fill="#C5922C" d="M923.89,66.729c-0.847-9.318-8.673-16.622-18.211-16.622s-17.364,7.304-18.209,16.622
		h-32.79v3.345h32.79c0.845,9.319,8.671,16.622,18.209,16.622c9.54,0,17.364-7.303,18.211-16.622h32.789v-3.345H923.89z
		 M915.501,72.125h-6.098v6.098h-7.447v-6.098h-6.098v-7.448h6.098V58.58h7.447v6.097h6.098V72.125z"/>
	<path display="inline" fill="#FFFFFF" d="M967.848,7.065v122.672h122.734V7.065H967.848z M1029.949,120.901
		c-28.995,0-52.499-23.505-52.499-52.5s23.504-52.5,52.499-52.5s52.5,23.505,52.5,52.5S1058.944,120.901,1029.949,120.901z"/>
	<g display="inline">
		<path fill="#FFFFFF" d="M1010.604,65.729c1.307-9.529,9.458-16.878,19.347-16.878c9.887,0,18.04,7.349,19.345,16.878h31.585
			c-1.389-26.925-23.659-48.329-50.93-48.329s-49.541,21.404-50.931,48.329H1010.604z"/>
		<path fill="#FFFFFF" d="M1049.295,71.072c-1.305,9.53-9.458,16.878-19.345,16.878c-9.889,0-18.04-7.348-19.347-16.878H979.02
			c1.39,26.925,23.66,48.329,50.931,48.329s49.541-21.404,50.93-48.329H1049.295z"/>
	</g>
	<path display="inline" fill="#A62F26" d="M1048.16,66.729c-0.847-9.318-8.673-16.622-18.211-16.622s-17.364,7.304-18.209,16.622
		h-32.79v3.345h32.79c0.845,9.319,8.671,16.622,18.209,16.622c9.54,0,17.364-7.303,18.211-16.622h32.789v-3.345H1048.16z
		 M1039.771,72.125h-6.098v6.098h-7.447v-6.098h-6.098v-7.448h6.098V58.58h7.447v6.097h6.098V72.125z"/>
	<rect x="348.72" y="309.153" fill="#00A79D" width="89.635" height="88.252"/>
	<line fill="none" x1="393.537" y1="309.153" x2="348.72" y2="375.403"/>
	<path fill="#00A651" d="M250.48,247.237c-7.617,0-13.792,6.174-13.792,13.792s6.174,13.792,13.792,13.792
		s13.792-6.174,13.792-13.792S258.097,247.237,250.48,247.237z M258.54,261.682h-13.405l6.524,5.741v1.734l-9.239-8.129l9.239-8.13
		v1.734l-6.417,5.646h13.298V261.682z"/>
	<path fill="#00A651" d="M312.855,247.237c-7.617,0-13.792,6.174-13.792,13.792s6.174,13.792,13.792,13.792
		s13.792-6.174,13.792-13.792S320.472,247.237,312.855,247.237z M313.509,269.089l-8.129-9.24h1.734l5.646,6.417v-13.298h1.403
		v13.406l5.741-6.525h1.734L313.509,269.089z"/>
	<path fill="#00A651" d="M375.188,247.237c-7.617,0-13.792,6.174-13.792,13.792s6.174,13.792,13.792,13.792
		s13.792-6.174,13.792-13.792S382.805,247.237,375.188,247.237z M374.009,269.158v-1.734l6.417-5.646h-13.298v-1.403h13.405
		l-6.524-5.741v-1.734l9.239,8.13L374.009,269.158z"/>
	<polygon id="Arrow_1_" fill="#FFFFFF" points="482.635,435.79 533.098,391.39 482.635,346.986 482.635,356.459 518.27,387.815 
		445.053,387.815 445.053,395.481 517.684,395.481 482.635,426.315 	"/>
	<polygon fill="#FFFFFF" points="387.891,397.681 438.354,353.282 387.891,308.878 387.891,318.351 423.526,349.708 
		358.012,349.708 358.012,308.878 350.309,308.878 350.309,349.708 350.309,357.374 358.013,357.374 422.94,357.374 
		387.891,388.208 	"/>
	<circle fill="#FFFFFF" cx="354.161" cy="353.559" r="3.852"/>
	<circle fill="#FFFFFF" cx="354.161" cy="353.559" r="3.821"/>
	<path fill="#A62F26" d="M997.765,247.57c-7.617,0-13.792,6.174-13.792,13.791s6.175,13.792,13.792,13.792
		s13.791-6.175,13.791-13.792S1005.382,247.57,997.765,247.57z M997.468,269.424l-8.077-9.18h1.724l5.61,6.375v-11.812v-1.402h1.393
		h5.706v1.402h-5.706v11.919l5.706-6.483h1.724L997.468,269.424z"/>
	<path fill="#A62F26" d="M1059.864,247.57c-7.617,0-13.791,6.174-13.791,13.791s6.174,13.792,13.791,13.792
		s13.792-6.175,13.792-13.792S1067.481,247.57,1059.864,247.57z M1061.284,270.538l-8.079-9.18h1.724l5.706,6.483v-11.919h-5.706
		v-1.402h5.706h1.393v1.402v11.812l5.61-6.375h1.724L1061.284,270.538z"/>
</g>
</svg>
